<svg width="22" height="17" viewBox="0 0 22 17" fill="none" xmlns="http://www.w3.org/2000/svg">
<g id="gmail">
<path id="Vector" d="M17.0515 1.52295L11.0644 6.19537L4.94043 1.52295V1.52421L4.94783 1.53053V8.07318L10.9954 12.8466L17.0515 8.25755V1.52295Z" fill="#EA4335"/>
<path id="Vector_2" d="M18.6231 0.386385L17.0508 1.52292V8.25752L21.9983 4.45897V2.17074C21.9983 2.17074 21.3978 -1.09742 18.6231 0.386385Z" fill="#FBBC05"/>
<path id="Vector_3" d="M17.0508 8.25766V16.9926H20.8428C20.8428 16.9926 21.9219 16.8814 21.9995 15.6514V4.45911L17.0508 8.25766Z" fill="#34A853"/>
<path id="Vector_4" d="M4.94811 16.9999V8.07309L4.94043 8.06677L4.94811 16.9999Z" fill="#C5221F"/>
<path id="Vector_5" d="M4.94014 1.52429L3.37646 0.394067C0.601794 -1.08974 0 2.17716 0 2.17716V4.46539L4.94014 8.06694V1.52429Z" fill="#C5221F"/>
<path id="Vector_6" d="M4.94043 1.52417V8.06682L4.94811 8.07314V1.53048L4.94043 1.52417Z" fill="#C5221F"/>
<path id="Vector_7" d="M0 4.46655V15.6589C0.0764574 16.8901 1.15673 17 1.15673 17H4.94877L4.94014 8.06684L0 4.46655Z" fill="#4285F4"/>
</g>
</svg>
