<svg width="250" height="235" viewBox="0 0 250 235" fill="none" xmlns="http://www.w3.org/2000/svg">
<g id="invite/amico">
<g id="Floor">
<path id="floor" d="M36.6153 214.761C85.4267 240.834 164.571 240.834 213.387 214.761C262.204 188.688 262.204 146.416 213.387 120.338C164.571 94.2603 85.4267 94.2657 36.6099 120.338C-12.2069 146.411 -12.2015 188.694 36.6153 214.761Z" fill="#F0F0F0"/>
</g>
<g id="Shadows">
<path id="Shadow" d="M215.212 191.599C226.995 191.599 236.548 186.084 236.548 179.28C236.548 172.476 226.995 166.961 215.212 166.961C203.428 166.961 193.875 172.476 193.875 179.28C193.875 186.084 203.428 191.599 215.212 191.599Z" fill="#E0E0E0"/>
<path id="shadow" d="M83.5104 193.794C95.2943 193.794 104.847 188.278 104.847 181.474C104.847 174.671 95.2943 169.155 83.5104 169.155C71.7266 169.155 62.1738 174.671 62.1738 181.474C62.1738 188.278 71.7266 193.794 83.5104 193.794Z" fill="#E0E0E0"/>
</g>
<g id="Envelope">
<g id="Letter">
<path id="Vector" d="M12.9565 97.4872C12.9906 96.8337 13.1785 96.1974 13.5049 95.6301C13.8313 95.0629 14.287 94.5807 14.8349 94.2228L111.163 38.5989C111.744 38.307 112.385 38.155 113.036 38.155C113.686 38.155 114.328 38.307 114.909 38.5989L117.049 39.8244C117.597 40.1815 118.053 40.6626 118.381 41.2289C118.708 41.7951 118.897 42.4304 118.933 43.0834V116.935C118.896 117.588 118.706 118.224 118.379 118.791C118.052 119.358 117.597 119.84 117.049 120.199L20.7216 175.823C20.1396 176.113 19.4985 176.263 18.8486 176.263C18.1986 176.263 17.5575 176.113 16.9755 175.823L14.8349 174.598C14.2869 174.239 13.8309 173.757 13.5036 173.19C13.1764 172.623 12.9871 171.987 12.9512 171.333L12.9565 97.4872Z" fill="#122AED"/>
<path id="Vector_2" d="M114.947 38.5989L67.3502 14.731C66.7814 14.3809 66.1476 14.1497 65.487 14.0512C64.8264 13.9528 64.1527 13.9892 63.5066 14.1582C62.8605 14.3272 62.2553 14.6254 61.7275 15.0347C61.1998 15.4441 60.7604 15.9561 60.436 16.5398L13.5029 95.6303L15.9914 97.0645L117.392 40.0438L114.947 38.5989Z" fill="#122AED"/>
<path id="Vector_3" opacity="0.1" d="M114.947 38.5989L67.3502 14.731C66.7814 14.3809 66.1476 14.1497 65.487 14.0512C64.8264 13.9528 64.1527 13.9892 63.5066 14.1582C62.8605 14.3272 62.2553 14.6254 61.7275 15.0347C61.1998 15.4441 60.7604 15.9561 60.436 16.5398L13.5029 95.6303L15.9914 97.0645L117.392 40.0438L114.947 38.5989Z" fill="black"/>
<path id="Vector_4" opacity="0.1" d="M12.9512 97.4819V171.333C12.9873 171.987 13.1772 172.623 13.5055 173.189C13.8338 173.755 14.2911 174.236 14.8403 174.592L16.9809 175.823C17.1526 175.914 17.3316 175.991 17.516 176.053C17.7679 176.139 18.0279 176.198 18.292 176.23C18.7874 176.295 19.2903 176.277 19.7797 176.176C19.9028 176.176 20.0259 176.118 20.1436 176.08C20.2193 176.056 20.2927 176.026 20.3631 175.989C20.2215 176.052 20.0684 176.084 19.9135 176.084C19.7587 176.084 19.6055 176.052 19.464 175.989C19.263 175.856 19.1027 175.671 19.0007 175.452C18.8987 175.234 18.859 174.992 18.886 174.753V100.902C18.8669 100.566 18.9503 100.233 19.1253 99.9461C19.3002 99.6593 19.5584 99.4326 19.8654 99.2961L18.886 98.7288L13.5345 95.6464C13.1893 96.1997 12.9887 96.8309 12.9512 97.4819Z" fill="black"/>
<path id="Vector_5" opacity="0.1" d="M118.51 41.4246L75.0931 110.904L72.9525 110.486C71.3143 110.167 69.619 110.322 68.0661 110.934C66.5131 111.545 65.1672 112.587 64.1867 113.938L61.5537 117.566L19.8117 99.2802L15.9746 97.0646L117.397 40.0439C117.86 40.4214 118.24 40.8918 118.51 41.4246Z" fill="black"/>
</g>
<path id="Vector_6" d="M117.393 40.0438C117.133 39.8462 116.86 39.6674 116.574 39.5087L69.8715 16.1652C69.3011 15.8081 68.6639 15.5712 67.9987 15.469C67.3336 15.3668 66.6546 15.4014 66.0033 15.5707C65.352 15.7401 64.7421 16.0406 64.211 16.4538C63.6799 16.8671 63.2387 17.3844 62.9145 17.9741L15.9922 97.0645L117.393 40.0438Z" fill="#122AED"/>
<path id="Vector_7" opacity="0.2" d="M118.066 119.284C118.589 118.623 118.897 117.819 118.949 116.978L75.0664 110.904L118.066 119.284Z" fill="black"/>
<path id="Vector_8" opacity="0.2" d="M61.5588 117.566L19.2816 175.85C19.1373 175.705 19.0261 175.53 18.9559 175.338C18.8857 175.146 18.8581 174.941 18.8749 174.737V173.934L61.5588 117.566Z" fill="black"/>
</g>
<g id="Clouds">
<path id="Vector_9" d="M209.839 2.03191L213.585 4.17252C213.564 4.00926 213.553 3.84481 213.553 3.68018V2.60987C213.553 0.694019 214.896 -0.0659001 216.561 0.87062C217.275 1.31236 217.886 1.90173 218.353 2.59917C218.626 0.185622 220.494 -0.713437 222.817 0.613746C225.3 2.04796 227.312 5.53717 227.312 8.40559V10.0111C227.329 10.6562 227.199 11.2968 226.932 11.8841L230.025 13.6662C230.51 13.9829 230.914 14.4097 231.203 14.9118C231.492 15.414 231.659 15.9773 231.689 16.556C231.689 17.6263 230.946 18.0491 230.025 17.5193L209.839 5.88502C209.354 5.56797 208.951 5.14109 208.662 4.63901C208.372 4.13692 208.206 3.57376 208.175 2.99518C208.175 1.93023 208.919 1.5021 209.839 2.03191Z" fill="#EBEBEB"/>
<path id="Vector_10" d="M193.919 12.8688L196.728 14.4742C196.728 14.3511 196.728 14.2281 196.728 14.105V13.3076C196.728 11.8573 197.745 11.274 198.997 11.9965C199.536 12.3288 199.998 12.7721 200.351 13.2969C200.555 11.4774 201.984 10.7977 203.717 11.7985C204.705 12.4445 205.527 13.314 206.117 14.3367C206.706 15.3594 207.047 16.5065 207.11 17.6851V18.8946C207.123 19.3791 207.026 19.8603 206.827 20.3021L209.16 21.6506C209.526 21.8898 209.83 22.2115 210.048 22.5898C210.267 22.9682 210.393 23.3925 210.418 23.8287C210.418 24.6315 209.85 24.9579 209.16 24.5565L193.919 15.78C193.553 15.5397 193.249 15.217 193.03 14.8378C192.812 14.4586 192.685 14.0335 192.661 13.5966C192.661 12.7938 193.228 12.4727 193.919 12.8688Z" fill="#EBEBEB"/>
</g>
<g id="character-2">
<g id="Character">
<path id="Vector_11" d="M204.253 96.0479C210.798 90.4234 216.914 77.6119 215.17 73.6142C212.157 73.4591 209.952 74.6043 208.015 78.1684C208.015 78.1684 202.513 88.8715 199.426 92.0236C196.786 94.8222 193.468 96.8907 189.793 98.028C188.991 98.1646 188.17 98.1482 187.374 97.9798C186.009 97.5624 185.233 97.921 183.933 97.8567C182.9 97.8086 182.365 97.4714 182.247 97.6962C182.138 97.9713 182.136 98.2777 182.244 98.5536C182.351 98.8296 182.559 99.0548 182.825 99.1839C183.317 99.4494 183.842 99.6457 184.388 99.7672C183.316 100.1 182.203 100.28 181.08 100.302C178.405 100.383 177.27 101.266 179.603 103.765C180.754 104.996 183.799 105.745 187.936 104.637C189.696 104.066 191.421 103.388 193.1 102.609C197.104 100.951 200.858 98.7425 204.253 96.0479Z" fill="#FFA8A7"/>
<path id="Vector_12" d="M225.252 174.427V173.752C224.984 174.544 223.759 177.932 221.897 179.639C220.414 180.988 218.391 182.55 217.878 184.054C217.364 185.558 220.693 186.147 222.073 185.9C223.679 185.617 225.76 184.707 226.89 183.316C227.687 182.336 228.19 181.175 228.763 180.41C229.335 179.644 230.641 178.778 230.946 177.889C231.117 177.402 230.914 176.332 230.678 175.427C230.443 174.523 230.224 173.683 229.94 173.758V174.293C229.274 174.82 228.445 175.1 227.596 175.085C226.911 175.085 225.247 174.951 225.252 174.427Z" fill="#263238"/>
<path id="Vector_13" d="M220.554 180.822L221.897 179.628C223.198 178.44 224.188 176.417 224.76 175.053C225.086 174.269 225.254 173.429 225.253 172.58V169.905H229.946V174.261V174.379C229.721 175.358 227.565 177.953 226.339 179.644C225.52 180.779 223.958 182.224 222.095 182.47C220.308 182.716 219.409 182.16 220.554 180.822Z" fill="#FFA8A7"/>
<path id="Vector_14" d="M206.934 169.808V169.134C206.672 169.926 205.441 173.314 203.579 175.021C202.096 176.369 200.079 177.932 199.565 179.436C199.051 180.94 202.375 181.528 203.761 181.282C205.366 180.998 207.448 180.089 208.577 178.697C209.369 177.718 209.878 176.557 210.445 175.791C211.012 175.026 212.323 174.186 212.634 173.271C212.8 172.784 212.602 171.713 212.366 170.809C212.131 169.905 211.911 169.064 211.628 169.139V169.675C210.959 170.202 210.129 170.482 209.278 170.467C208.599 170.456 206.929 170.343 206.934 169.808Z" fill="#263238"/>
<path id="Vector_15" d="M202.241 176.193C202.696 175.781 203.161 175.379 203.579 174.999C204.879 173.811 205.875 171.788 206.442 170.424C206.768 169.64 206.935 168.8 206.934 167.951V165.276H211.633V169.632V169.75C211.408 170.729 209.257 173.324 208.031 175.015C207.207 176.15 205.65 177.595 203.788 177.841C201.995 178.087 201.09 177.531 202.241 176.193Z" fill="#FFA8A7"/>
<path id="Vector_16" d="M229.013 101.453C232.652 109.4 228.879 137.41 228.879 137.41C228.992 138.7 230.485 141.236 231.02 146.92C231.668 153.625 230.003 170.467 230.003 170.467C229.287 170.881 228.48 171.115 227.653 171.147C226.826 171.18 226.003 171.011 225.256 170.654C225.256 170.654 220.782 145.277 219.937 138.609C219.204 132.786 217.796 119.985 217.796 119.985L213.788 138.577C214.373 140.453 214.798 142.376 215.056 144.324C215.436 148.247 211.637 166.517 211.637 166.517C211.637 166.517 210.031 167.111 206.938 166.656C206.938 166.656 205.595 142.414 205.242 137.683C204.648 129.747 206.756 104.974 208.212 100.276L229.013 101.453Z" fill="#122AED"/>
<path id="Vector_17" opacity="0.15" d="M217.792 119.996L216.609 112.611C216.609 112.611 211.611 111.573 209.342 109.443C209.342 109.443 211.718 112.402 215.255 113.371L216.582 119.054L214.26 136.27L217.792 119.996Z" fill="black"/>
<path id="Vector_18" d="M222.592 73.8284C227.259 74.1495 227.585 76.4025 228.752 78.8696C229.604 80.7696 229.685 82.9264 228.976 84.8847L225.723 94.2927C225.723 94.2927 227.243 97.9746 229.014 101.453C220.853 106.007 210.658 103.594 208.207 100.286C208.1 99.5801 208.742 94.068 209.122 90.4717C207.683 86.8648 207.303 84.585 207.913 82.1929C209.037 77.7725 213.409 73.4592 215.341 73.6304L222.592 73.8284Z" fill="#F0F0F0"/>
<path id="Vector_19" d="M225.054 72.5012H208.031V60.4174C208.031 57.874 209.041 55.4348 210.84 53.6363C212.638 51.8378 215.077 50.8275 217.621 50.8275H219.328C221.871 50.8275 224.311 51.8378 226.109 53.6363C227.908 55.4348 228.918 57.874 228.918 60.4174V68.6374C228.918 69.6622 228.511 70.6449 227.786 71.3695C227.062 72.0941 226.079 72.5012 225.054 72.5012Z" fill="#263238"/>
<path id="Vector_20" d="M227.526 52.0745L226.135 54.3435C226.279 54.4436 226.442 54.5134 226.614 54.5487C226.786 54.5841 226.963 54.5843 227.135 54.5493C227.307 54.5143 227.47 54.4448 227.615 54.3451C227.759 54.2453 227.882 54.1174 227.976 53.9689C228.159 53.6561 228.215 53.2844 228.131 52.9314C228.048 52.5784 227.831 52.2714 227.526 52.0745Z" fill="#263238"/>
<path id="Vector_21" d="M229.475 54.1509L226.831 54.5469C226.848 54.7214 226.9 54.8907 226.985 55.0445C227.069 55.1982 227.184 55.3333 227.322 55.4414C227.46 55.5494 227.619 55.6283 227.788 55.6733C227.958 55.7182 228.135 55.7283 228.308 55.7028C228.665 55.6434 228.985 55.4491 229.202 55.1602C229.419 54.8713 229.517 54.5099 229.475 54.1509Z" fill="#263238"/>
<path id="Vector_22" d="M211.996 55.0553C210.893 55.7082 209.529 58.4803 209.662 64.2974C209.78 69.2315 211.375 70.4463 212.178 70.7995C212.98 71.1527 214.527 70.9333 216.031 70.6872V73.6466C216.031 73.6466 213.954 76.0601 214.083 77.3926C214.211 78.7252 217.085 79.073 219.033 77.7458C220.299 76.8374 221.388 75.7036 222.244 74.4011V67.2729C222.244 67.2729 223.255 68.6268 224.92 67.5244C226.584 66.422 226.643 63.6927 225.674 62.708C224.706 61.7233 222.629 62.0391 222.244 63.393C222.244 63.393 219.841 63.4786 216.646 61.7233C215.401 61.0556 214.332 60.1039 213.524 58.9453C212.716 57.7868 212.192 56.4541 211.996 55.0553Z" fill="#FFA8A7"/>
<path id="Vector_23" d="M215.72 63.0612C215.709 63.1462 215.716 63.2325 215.74 63.3147C215.764 63.397 215.805 63.4733 215.86 63.539C215.915 63.6046 215.983 63.6582 216.06 63.6962C216.137 63.7343 216.221 63.7561 216.306 63.7601C216.392 63.7642 216.477 63.7505 216.557 63.7199C216.637 63.6893 216.71 63.6425 216.771 63.5824C216.832 63.5222 216.88 63.4501 216.912 63.3706C216.944 63.291 216.959 63.2057 216.956 63.1201C216.963 63.0374 216.953 62.9542 216.927 62.8754C216.901 62.7966 216.86 62.7237 216.805 62.6609C216.751 62.5982 216.685 62.5469 216.611 62.5099C216.536 62.473 216.456 62.4512 216.373 62.4458C216.205 62.4414 216.042 62.5037 215.92 62.619C215.797 62.7343 215.725 62.8932 215.72 63.0612Z" fill="#263238"/>
<path id="Vector_24" d="M215.004 67.2406L213.564 67.7008C213.588 67.7992 213.631 67.8918 213.692 67.9728C213.752 68.0537 213.829 68.1214 213.917 68.1716C214.004 68.2217 214.102 68.2534 214.202 68.2644C214.303 68.2755 214.404 68.2658 214.501 68.236C214.699 68.1699 214.863 68.0283 214.957 67.8418C215.052 67.6554 215.068 67.4393 215.004 67.2406Z" fill="#F28F8F"/>
<path id="Vector_25" d="M210.615 61.1721L211.873 60.3052C211.82 60.2204 211.751 60.1473 211.669 60.0903C211.587 60.0332 211.495 59.9935 211.397 59.9734C211.299 59.9534 211.199 59.9535 211.101 59.9737C211.003 59.994 210.911 60.0339 210.829 60.0911C210.661 60.2091 210.545 60.3873 210.505 60.5887C210.466 60.79 210.505 60.999 210.615 61.1721Z" fill="#263238"/>
<path id="Vector_26" d="M210.926 62.6116C210.923 62.6931 210.935 62.7746 210.962 62.8514C210.99 62.9282 211.033 62.9988 211.087 63.0591C211.142 63.1195 211.209 63.1685 211.283 63.2033C211.356 63.238 211.436 63.2579 211.518 63.2618C211.599 63.2656 211.681 63.2534 211.758 63.2258C211.834 63.1982 211.905 63.1557 211.965 63.1008C212.026 63.0459 212.075 62.9796 212.11 62.9058C212.144 62.8319 212.164 62.752 212.168 62.6704C212.172 62.5889 212.16 62.5074 212.132 62.4306C212.104 62.3538 212.062 62.2832 212.007 62.2229C211.952 62.1625 211.886 62.1135 211.812 62.0787C211.738 62.044 211.658 62.0241 211.577 62.0202C211.495 62.0164 211.414 62.0286 211.337 62.0562C211.26 62.0838 211.189 62.1263 211.129 62.1812C211.069 62.2361 211.02 62.3024 210.985 62.3762C210.95 62.4501 210.93 62.5301 210.926 62.6116Z" fill="#263238"/>
<path id="Vector_27" d="M213.955 62.2583L213.859 65.9883L211.89 65.3836L213.955 62.2583Z" fill="#F28F8F"/>
<path id="Vector_28" d="M216.031 70.687C217.637 70.4783 220.88 69.5418 221.383 68.2521C221.18 68.9023 220.785 69.4754 220.248 69.895C219.274 70.7298 216.037 71.6717 216.037 71.6717L216.031 70.687Z" fill="#F28F8F"/>
<path id="Vector_29" d="M220.505 102.336C221.144 102.189 221.748 101.916 222.281 101.533C222.813 101.15 223.263 100.664 223.605 100.104C223.948 99.5442 224.174 98.9216 224.272 98.2728C224.37 97.6241 224.337 96.9624 224.176 96.3264C224.154 96.2394 224.127 96.1537 224.096 96.0696C223.983 95.7278 223.759 95.4339 223.459 95.2349C223.159 95.036 222.801 94.9436 222.442 94.9725C222.965 94.6249 223.415 94.1774 223.765 93.6558C224.114 93.1342 224.358 92.5487 224.481 91.9328L225.471 86.0461C225.592 85.0847 225.506 84.1087 225.22 83.183L228.5 79.3888L229.11 79.8116C229.604 81.4778 229.557 83.2576 228.976 84.8955L225.723 94.3035C225.723 94.3035 227.243 97.9854 229.014 101.464C226.358 102.891 223.427 103.732 220.419 103.932C217.41 104.131 214.394 103.684 211.573 102.62C214.542 103.086 217.572 102.99 220.505 102.336Z" fill="#E6E6E6"/>
<path id="Vector_30" d="M237.373 97.2468C233.135 79.9292 229.999 74.1549 224.85 74.2352C223.352 76.0333 223.78 81.4598 226.14 84.751C226.14 84.751 231.433 95.9197 232.278 99.8905C233.022 103.38 233.884 107.768 233.809 110.77C233.793 111.301 233.584 111.807 233.22 112.194C232.257 113.264 232.252 114.088 231.615 115.249C231.122 116.154 230.587 116.496 230.737 116.7C230.939 116.921 231.218 117.056 231.516 117.078C231.815 117.1 232.11 117.007 232.342 116.817C232.797 116.489 233.204 116.1 233.552 115.661C233.384 116.771 233.061 117.852 232.594 118.872C231.524 121.323 231.77 122.576 235.082 121.703C237.154 121.168 238.454 119.429 238.764 114.447C238.915 112.611 238.933 110.767 238.818 108.929C238.368 104.188 238.047 100.035 237.373 97.2468Z" fill="#FFA8A7"/>
</g>
</g>
<g id="character-1">
<g id="character-boy">
<path id="Vector_31" d="M117.819 85.291C117.006 85.9653 116.075 86.3078 115.004 87.3514C114.327 88.1208 113.473 88.714 112.516 89.0799C111.28 89.5669 110.118 89.4224 106.694 88.8765C102.498 88.2023 100.694 87.5012 98.8856 85.9546C96.7718 84.1511 92.0463 78.714 89.7559 76.5733C87.3423 74.315 84.0137 75.1873 84.0137 75.1873C85.0427 78.5361 86.5728 81.7098 88.5518 84.6007C90.382 87.2069 93.8016 89.7007 95.3536 90.9904C97.826 93.0507 99.1425 93.8642 104.585 94.2709C108.69 94.5813 109.235 94.683 112.612 94.5813C113.827 94.5438 114.587 94.5331 116.572 94.3672C117.437 94.3164 118.294 94.1674 119.125 93.923C120.066 93.705 120.969 93.344 121.801 92.8527C122.888 92.1474 123.764 91.162 124.338 90.0004C124.655 89.3642 124.816 88.6616 124.808 87.9507C124.802 87.2357 124.54 86.5466 124.07 86.0081C123.981 85.8948 123.862 85.8079 123.727 85.7566C123.47 85.71 123.205 85.7657 122.989 85.9118C121.699 86.5754 120.404 87.4798 119.061 87.9989C117.921 88.4377 117.059 88.5876 117.14 88.3574C117.22 88.1273 117.91 87.9186 118.617 87.1212C119.323 86.3239 119.5 85.2161 119.045 84.8736C118.59 84.5311 118.638 84.6167 117.819 85.291Z" fill="#B16668"/>
<path id="Vector_32" d="M83.0391 75.1713C84.3327 74.5497 85.8006 74.391 87.1972 74.7218C89.3378 75.3265 91.0129 76.7125 93.0304 78.8746C95.0479 81.0366 98.4515 84.5472 98.4515 84.5472C98.4515 84.5472 96.7765 88.791 93.009 90.2948L85.1101 82.9899L83.0391 75.1713Z" fill="#455A64"/>
<g id="character-boy_2">
<path id="Vector_33" d="M71.4311 180.34H76.2207V172.141H71.4311V180.34Z" fill="#B16668"/>
<path id="Vector_34" d="M84.6875 174.207L89.4718 174.373L89.7126 165.698L84.6875 165.532V174.207Z" fill="#B16668"/>
<path id="Vector_35" d="M69.3983 110.941C69.3983 115.511 70.2064 142.108 70.2064 142.108C70.094 143.425 68.8257 145.763 68.7293 150.505C68.5848 157.376 71.2339 176.246 71.2339 176.246C72.0632 176.656 72.9727 176.878 73.8977 176.896C74.8227 176.915 75.7404 176.729 76.5854 176.353C76.5854 176.353 78.7581 150.772 79.6144 143.971C80.3636 138.03 81.6319 121.901 81.6319 121.901L83.8903 141.284C83.336 143.78 83.136 146.342 83.2962 148.894C83.521 152.041 84.404 171.526 84.404 171.526C85.238 171.997 86.1656 172.28 87.121 172.353C88.0764 172.426 89.0361 172.288 89.9322 171.948C89.9322 171.948 93.309 144.174 93.3678 141.284C93.4321 137.993 92.1156 104.396 92.1156 104.396L69.3983 110.941Z" fill="#37474F"/>
<path id="Vector_36" d="M72.5451 77.2957C71.4894 77.7627 70.6592 78.6256 70.2333 79.6986C69.743 81.0215 69.5052 82.4247 69.5322 83.8353V93.2219L69.3984 110.936C76.2698 114.559 85.0089 114.799 92.3405 109.448C92.3405 109.448 91.9284 86.6449 91.9284 82.9149C91.9284 82.7436 91.9284 82.5724 91.9284 82.3797C91.6609 77.0282 86.4163 73.3945 81.2521 74.7216L76.912 75.8401L72.5451 77.2957Z" fill="#F0F0F0"/>
<path id="Vector_37" d="M91.2389 61.3534C92.0739 57.8153 89.8827 54.2701 86.3445 53.435C82.8064 52.5999 79.2612 54.7912 78.4261 58.3293C77.591 61.8675 79.7823 65.4127 83.3204 66.2478C86.8586 67.0828 90.4038 64.8916 91.2389 61.3534Z" fill="#263238"/>
<path id="Vector_38" d="M73.46 64.527C73.46 64.527 74.5303 69.536 74.9584 70.3602C75.2384 70.8749 75.7092 71.2592 76.2695 71.4305L76.1946 67.9091L73.46 64.527Z" fill="#263238"/>
<path id="Vector_39" d="M74.7984 57.3506C74.4263 57.3068 74.0492 57.3486 73.6958 57.4729C73.3424 57.5972 73.0221 57.8006 72.7594 58.0677C71.8818 58.9668 72.3688 61.7764 73.4605 64.5271L75.4726 64.7572L74.7984 57.3506Z" fill="#263238"/>
<path id="Vector_40" d="M76.0712 64.7571C75.6698 64.998 75.0972 64.222 74.5995 63.6868C74.1018 63.1517 72.4589 62.4613 71.6722 64.1631C70.8856 65.8649 72.384 68.1928 73.663 68.5942C75.8625 69.2845 76.1943 67.8771 76.1943 67.8771L76.3548 76.0542C79.0895 79.5595 86.6833 79.2652 83.5206 75.5994V73.1858C84.5022 73.3438 85.4979 73.3958 86.4907 73.341C88.0961 73.0895 89.1236 71.8105 89.616 70.0605C90.4026 67.2456 90.6863 64.9766 90.0334 59.4431C89.3002 53.3798 82.2469 53.3156 78.4419 55.697C74.637 58.0784 76.0712 64.7571 76.0712 64.7571Z" fill="#B16668"/>
<path id="Vector_41" d="M76.0717 65.4528C75.8683 65.4528 75.1031 64.1791 74.6 63.7189C73.9043 63.0874 74.798 57.3666 74.798 57.3666C74.6172 56.8707 74.5847 56.3328 74.7044 55.8187C74.8242 55.3046 75.091 54.8364 75.4723 54.4714C76.4249 53.4011 77.4578 52.7589 80.2031 52.6144C82.0794 52.6072 83.9548 52.6947 85.8222 52.8767C88.5354 53.0586 89.5308 52.395 91.0881 51.9562C92.2815 51.6244 92.4153 55.9217 89.4077 57.3452C89.4077 57.3452 88.4284 57.9767 85.849 58.2924C83.4704 58.472 81.0802 58.4272 78.71 58.1586C77.9662 58.0569 77.8056 58.7794 77.3989 60.7595C77.0457 62.4773 76.7567 65.4207 76.0717 65.4528Z" fill="#263238"/>
<path id="Vector_42" d="M74.8021 57.7947L72.3672 56.4836C72.4455 56.3197 72.5562 56.1735 72.6927 56.0536C72.8291 55.9338 72.9884 55.8429 73.161 55.7863C73.3336 55.7298 73.5158 55.7089 73.6967 55.7248C73.8776 55.7407 74.0534 55.7931 74.2135 55.8788C74.5393 56.061 74.7824 56.3619 74.892 56.7187C75.0017 57.0756 74.9695 57.461 74.8021 57.7947Z" fill="#263238"/>
<path id="Vector_43" d="M83.5105 73.2017C83.5105 73.2017 79.9035 72.4739 78.6406 71.805C77.8983 71.4157 77.2889 70.8139 76.8906 70.0764C77.0843 70.8152 77.4226 71.5082 77.886 72.1154C78.8065 73.2927 83.5105 74.165 83.5105 74.165V73.2017Z" fill="#9A4A4D"/>
<path id="Vector_44" d="M83.3336 63.8473C83.3336 63.9422 83.3149 64.0362 83.2786 64.1238C83.2423 64.2115 83.1891 64.2911 83.122 64.3582C83.0549 64.4253 82.9753 64.4785 82.8876 64.5148C82.8 64.5511 82.706 64.5698 82.6111 64.5698C82.5163 64.5698 82.4223 64.5511 82.3347 64.5148C82.247 64.4785 82.1674 64.4253 82.1003 64.3582C82.0332 64.2911 81.98 64.2115 81.9437 64.1238C81.9074 64.0362 81.8887 63.9422 81.8887 63.8473C81.8887 63.7525 81.9074 63.6585 81.9437 63.5709C81.98 63.4832 82.0332 63.4036 82.1003 63.3365C82.1674 63.2694 82.247 63.2162 82.3347 63.1799C82.4223 63.1436 82.5163 63.1249 82.6111 63.1249C82.706 63.1249 82.8 63.1436 82.8876 63.1799C82.9753 63.2162 83.0549 63.2694 83.122 63.3365C83.1891 63.4036 83.2423 63.4832 83.2786 63.5709C83.3149 63.6585 83.3336 63.7525 83.3336 63.8473Z" fill="#263238"/>
<path id="Vector_45" d="M82.569 61.1235L81.0224 61.9797C80.9101 61.7674 80.8848 61.5198 80.9517 61.2891C81.0186 61.0585 81.1725 60.8628 81.3809 60.7435C81.4835 60.6884 81.596 60.6545 81.7119 60.6438C81.8279 60.6331 81.9447 60.6459 82.0556 60.6813C82.1665 60.7168 82.2691 60.7742 82.3573 60.8502C82.4455 60.9261 82.5175 61.0191 82.569 61.1235Z" fill="#263238"/>
<path id="Vector_46" d="M83.1843 68.8563L84.8379 69.4717C84.8007 69.5817 84.7419 69.6832 84.6648 69.77C84.5878 69.8568 84.494 69.9272 84.3892 69.9772C84.2844 70.0271 84.1706 70.0554 84.0547 70.0605C83.9387 70.0656 83.8229 70.0474 83.7141 70.0069C83.4961 69.9183 83.32 69.7501 83.2216 69.5364C83.1232 69.3227 83.1098 69.0795 83.1843 68.8563Z" fill="#9A4A4D"/>
<path id="Vector_47" d="M89.5788 61.7068L88.166 60.6365C88.2329 60.5413 88.3183 60.4606 88.4172 60.3993C88.5161 60.3381 88.6264 60.2975 88.7414 60.2799C88.8565 60.2624 88.9738 60.2684 89.0865 60.2975C89.1991 60.3266 89.3047 60.3782 89.3969 60.4492C89.5808 60.5968 89.7019 60.8087 89.7357 61.0421C89.7695 61.2756 89.7134 61.5131 89.5788 61.7068Z" fill="#263238"/>
<path id="Vector_48" d="M89.1348 63.6494C89.1296 63.7923 89.0823 63.9305 88.999 64.0467C88.9156 64.1629 88.7999 64.252 88.6662 64.3029C88.5325 64.3537 88.3869 64.364 88.2474 64.3326C88.1078 64.3011 87.9807 64.2292 87.8818 64.1259C87.7829 64.0226 87.7166 63.8925 87.6912 63.7517C87.6659 63.611 87.6825 63.4659 87.7391 63.3345C87.7957 63.2032 87.8897 63.0915 88.0095 63.0132C88.1292 62.935 88.2693 62.8938 88.4124 62.8948C88.5096 62.8962 88.6055 62.9169 88.6947 62.9557C88.7838 62.9945 88.8643 63.0506 88.9315 63.1208C88.9988 63.1911 89.0514 63.274 89.0863 63.3647C89.1212 63.4554 89.1377 63.5522 89.1348 63.6494Z" fill="#263238"/>
<path id="Vector_49" d="M85.458 62.9644L85.6935 67.3152L87.9679 66.5392L85.458 62.9644Z" fill="#9A4A4D"/>
<path id="Vector_50" d="M76.2274 177.98V177.3C76.6823 177.498 77.7473 181.581 79.6471 183.294C81.1562 184.669 83.2165 186.259 83.741 187.794C84.2654 189.33 80.8726 190.278 79.4597 190.026C77.8222 189.737 74.9805 188.581 74.2688 187.511C73.557 186.441 73.1984 184.862 72.6633 184.081C72.1281 183.299 70.7474 182.416 70.4317 181.512C70.2604 181.014 70.4638 179.906 70.7046 178.997C70.9454 178.087 71.1702 177.22 71.4592 177.3V177.835C72.139 178.373 72.9845 178.659 73.8513 178.643C74.531 178.649 76.2328 178.515 76.2274 177.98Z" fill="#263238"/>
<path id="Vector_51" d="M89.5251 172.896C89.7713 172.896 89.9746 173.254 90.5205 173.848C91.3413 174.676 92.2945 175.362 93.3408 175.877C95.1335 176.776 98.6174 178.156 100.196 178.863C101.181 179.307 101.133 180.5 100.116 181.175C99.099 181.849 96.6373 182.341 93.694 181.683C92.0885 181.324 89.9907 179.837 88.6635 179.917C87.3363 179.997 84.8586 179.976 83.8792 179.302C82.8999 178.627 83.2959 177.188 83.5689 175.952C83.8739 174.598 84.2485 172.494 84.698 172.585V173.051C85.2706 173.923 88.2408 174.276 89.5144 173.634L89.5251 172.896Z" fill="#263238"/>
<path id="Vector_52" d="M81.6104 121.895C84.0859 121.125 86.3621 119.821 88.2784 118.074C88.2784 118.074 86.994 120.483 83.1677 122.725L83.7028 139.652L81.6104 121.895Z" fill="#263238"/>
</g>
</g>
<path id="Vector_53" d="M174.985 20.4572C174.904 19.8578 174.417 19.6384 173.839 19.9755L110.943 56.2965C110.602 56.5126 110.32 56.8106 110.124 57.1634L107.951 55.9058C108.146 55.5533 108.428 55.2567 108.77 55.0442L171.667 18.7233C171.986 18.5131 172.355 18.3921 172.736 18.3727C173.118 18.3534 173.498 18.4365 173.836 18.6134C174.175 18.7903 174.46 19.0546 174.662 19.3788C174.864 19.703 174.975 20.0753 174.985 20.4572Z" fill="#FAFAFA"/>
<path id="Vector_54" d="M110.724 171.868C110.504 171.949 110.276 172.005 110.044 172.034C109.581 172.097 109.111 172.016 108.695 171.804C108.376 171.583 108.113 171.29 107.927 170.949C107.741 170.608 107.638 170.228 107.625 169.84V57.051C107.622 57.0046 107.622 56.9582 107.625 56.9118C107.636 56.8147 107.652 56.7183 107.673 56.6229C107.737 56.3721 107.835 56.1309 107.962 55.9058L110.135 57.1634C109.928 57.5085 109.812 57.9008 109.798 58.3033V171.092C109.798 171.628 110.06 171.922 110.435 171.922C110.484 171.927 110.535 171.927 110.584 171.922C110.632 171.909 110.679 171.891 110.724 171.868Z" fill="#E0E0E0"/>
<path id="Vector_55" d="M109.787 58.3086V171.098C109.787 171.836 110.322 172.136 110.943 171.761L173.84 135.446C174.176 135.225 174.456 134.929 174.657 134.58C174.857 134.231 174.974 133.841 174.996 133.439V20.6498C174.996 19.9113 174.461 19.6116 173.84 19.9808L110.943 56.3018C110.605 56.5208 110.324 56.817 110.123 57.1659C109.922 57.5148 109.807 57.9064 109.787 58.3086Z" fill="#FAFAFA"/>
<path id="Vector_56" d="M121.704 72.8166C121.595 72.6606 121.547 72.4702 121.57 72.2814V60.9522C121.561 60.7097 121.606 60.4681 121.704 60.2458C121.794 60.0508 121.944 59.8896 122.132 59.7856L123.058 59.2504C123.268 59.1327 123.413 59.1166 123.491 59.2023C123.6 59.3702 123.645 59.5712 123.62 59.7695V71.088C123.628 71.3248 123.584 71.5606 123.491 71.7784C123.399 71.9724 123.247 72.1318 123.058 72.2333L122.132 72.7684C121.934 72.8808 121.779 72.8969 121.704 72.8166Z" fill="#122AED"/>
<path id="Vector_57" d="M125.322 70.7241C125.216 70.567 125.17 70.377 125.193 70.1889V58.8383C125.186 58.5999 125.23 58.3626 125.322 58.1426C125.419 57.9503 125.572 57.7917 125.761 57.6877L126.531 57.2489C126.568 57.2089 126.615 57.1789 126.666 57.1619C126.718 57.1448 126.773 57.1412 126.827 57.1514C126.881 57.1615 126.931 57.1852 126.972 57.22C127.014 57.2549 127.047 57.2998 127.066 57.3506L130.54 62.8894V55.7665C130.533 55.5247 130.576 55.2841 130.668 55.0601C130.758 54.8667 130.908 54.7073 131.096 54.6052L132.027 54.0701C132.231 53.947 132.375 53.931 132.461 54.0166C132.563 54.1869 132.607 54.3863 132.584 54.5838V65.9077C132.591 66.1438 132.549 66.3789 132.461 66.5981C132.366 66.7892 132.215 66.9463 132.027 67.0476L131.246 67.4971C131.208 67.5369 131.161 67.5663 131.109 67.5827C131.056 67.599 131.001 67.6017 130.947 67.5904C130.893 67.5791 130.843 67.5543 130.802 67.5183C130.761 67.4823 130.729 67.4363 130.711 67.3847L127.227 61.878V68.9955C127.234 69.2335 127.192 69.4703 127.104 69.6912C127.011 69.8835 126.859 70.041 126.67 70.1408L125.739 70.6759C125.552 70.8044 125.407 70.8044 125.322 70.7241Z" fill="#122AED"/>
<path id="Vector_58" d="M137.299 63.901C137.203 63.813 137.137 63.6968 137.112 63.5692L133.976 53.5832C133.954 53.4902 133.941 53.3951 133.938 53.2996C133.929 53.2103 133.945 53.1202 133.985 53.0397C134.025 52.9592 134.086 52.8916 134.163 52.8447L135.651 51.9831C135.768 51.9189 135.854 51.9028 135.918 51.9456C135.99 52.0082 136.039 52.0929 136.057 52.1865L138.043 59.2344L140.028 49.896C140.043 49.7582 140.089 49.6255 140.162 49.5078C140.235 49.3901 140.334 49.2905 140.451 49.2163L141.939 48.3547C142.083 48.2691 142.158 48.3547 142.158 48.5528C142.156 48.6625 142.144 48.7719 142.121 48.8792L139.001 62.4775C138.962 62.6639 138.897 62.844 138.808 63.0126C138.734 63.1345 138.629 63.2343 138.503 63.3016L137.599 63.8368C137.459 63.917 137.358 63.9384 137.299 63.901Z" fill="#122AED"/>
<path id="Vector_59" d="M143.625 60.1602C143.518 60.0032 143.471 59.8137 143.491 59.6251V48.2959C143.484 48.0535 143.53 47.8127 143.625 47.5894C143.715 47.3945 143.865 47.2333 144.053 47.1292L144.979 46.5941C145.187 46.4763 145.332 46.4603 145.417 46.5459C145.521 46.7159 145.564 46.9156 145.54 47.1132V58.4317C145.548 58.6679 145.506 58.9031 145.417 59.122C145.32 59.3144 145.167 59.4729 144.979 59.5769L144.053 60.1121C143.855 60.2244 143.721 60.2405 143.625 60.1602Z" fill="#122AED"/>
<path id="Vector_60" d="M149.303 56.8904C149.197 56.7332 149.151 56.5432 149.174 56.3552V46.503L147.141 47.6803C146.943 47.7927 146.803 47.8088 146.729 47.7339C146.636 47.5716 146.597 47.3845 146.616 47.1987V46.4923C146.606 46.2552 146.645 46.0186 146.729 45.7966C146.817 45.6138 146.961 45.4639 147.141 45.3685L153.263 41.8365C153.461 41.7187 153.6 41.7027 153.68 41.7829C153.779 41.9547 153.82 42.1534 153.798 42.3502V43.0513C153.805 43.2835 153.765 43.5148 153.68 43.7309C153.59 43.9154 153.444 44.067 153.263 44.1644L151.229 45.3364V55.1672C151.239 55.4057 151.195 55.6434 151.101 55.8629C151.006 56.057 150.853 56.2163 150.662 56.3177L149.741 56.8529C149.533 56.9439 149.388 56.9653 149.303 56.8904Z" fill="#122AED"/>
<path id="Vector_61" d="M155.007 53.5886C154.899 53.4326 154.851 53.2422 154.874 53.0534V41.7242C154.864 41.4817 154.91 41.2401 155.007 41.0178C155.096 40.8233 155.247 40.6634 155.436 40.5629L160.578 37.5875C160.776 37.4751 160.915 37.459 160.99 37.5339C161.078 37.6979 161.115 37.8841 161.097 38.0691V38.7755C161.106 39.0121 161.07 39.2481 160.99 39.4712C160.902 39.654 160.758 39.8039 160.578 39.8993L156.923 42.0078V45.0261L159.476 43.5491C159.674 43.4367 159.808 43.4153 159.883 43.4956C159.975 43.6578 160.014 43.845 159.995 44.0307V44.6997C160.005 44.935 159.967 45.1699 159.883 45.39C159.798 45.5737 159.655 45.7243 159.476 45.8181L156.923 47.2952V50.3295L160.568 48.2263C160.766 48.1086 160.899 48.0979 160.974 48.1782C161.07 48.3508 161.11 48.5492 161.087 48.7454V49.4304C161.098 49.6641 161.059 49.8975 160.974 50.1154C160.888 50.2949 160.745 50.4414 160.568 50.5328L155.436 53.4976C155.238 53.6796 155.093 53.6796 155.007 53.5886Z" fill="#122AED"/>
<path id="Vector_62" d="M121.811 82.3798L162.986 58.6189C163.628 58.2443 164.147 58.544 164.147 59.2879V60.3582C164.124 60.7602 164.007 61.1512 163.805 61.4997C163.604 61.8483 163.323 62.1446 162.986 62.365L121.827 86.1312C121.185 86.5005 120.666 86.2008 120.666 85.4623V84.392C120.685 83.9901 120.799 83.5985 120.998 83.2489C121.197 82.8993 121.476 82.6015 121.811 82.3798Z" fill="#E0E0E0"/>
<path id="Vector_63" d="M128.335 90.4926L156.447 74.2614C157.089 73.8921 157.608 74.1918 157.608 74.9303V76.0006C157.586 76.4029 157.47 76.7944 157.268 77.1431C157.066 77.4919 156.785 77.788 156.447 78.0074L128.335 94.2333C127.693 94.6026 127.174 94.3029 127.174 93.5644V92.4941C127.196 92.0927 127.313 91.7023 127.515 91.3545C127.717 91.0068 127.998 90.7115 128.335 90.4926Z" fill="#E6E6E6"/>
<path id="Vector_64" d="M128.336 98.1242L156.447 81.8983C157.1 81.5076 157.635 81.8287 157.635 82.5779V83.6483C157.614 84.0506 157.497 84.4421 157.295 84.7908C157.093 85.1395 156.812 85.4357 156.474 85.6551L128.362 101.886C127.72 102.256 127.201 101.956 127.201 101.217V100.147C127.218 99.7443 127.329 99.3512 127.526 98.9997C127.723 98.6481 128.001 98.3481 128.336 98.1242Z" fill="#E6E6E6"/>
<path id="Vector_65" d="M128.335 105.761L156.447 89.5348C157.089 89.1655 157.608 89.4652 157.608 90.2037V91.2741C157.586 91.6764 157.47 92.0679 157.268 92.4166C157.066 92.7653 156.785 93.0615 156.447 93.2809L128.335 109.507C127.693 109.876 127.174 109.576 127.174 108.838V107.768C127.196 107.365 127.312 106.974 127.514 106.625C127.716 106.276 127.997 105.98 128.335 105.761Z" fill="#E6E6E6"/>
<path id="Vector_66" d="M121.811 121.564L162.986 97.7976C163.628 97.4284 164.147 97.728 164.147 98.4666V99.5369C164.124 99.9389 164.007 100.33 163.805 100.678C163.604 101.027 163.323 101.323 162.986 101.544L121.827 125.31C121.185 125.679 120.666 125.379 120.666 124.641V123.571C120.686 123.17 120.8 122.779 120.999 122.431C121.198 122.082 121.476 121.785 121.811 121.564Z" fill="#E0E0E0"/>
<path id="Vector_67" d="M128.335 129.709L156.447 113.478C157.089 113.108 157.608 113.408 157.608 114.146V115.217C157.586 115.619 157.47 116.011 157.268 116.359C157.066 116.708 156.785 117.004 156.447 117.224L128.335 133.471C127.693 133.84 127.174 133.54 127.174 132.802V131.732C127.193 131.327 127.309 130.932 127.51 130.58C127.712 130.228 127.995 129.93 128.335 129.709Z" fill="#E6E6E6"/>
<path id="Vector_68" d="M128.335 137.34L156.447 121.109C157.089 120.74 157.608 121.034 157.608 121.778V122.848C157.586 123.251 157.47 123.642 157.268 123.991C157.066 124.34 156.785 124.636 156.447 124.855L128.335 141.086C127.693 141.456 127.174 141.156 127.174 140.417V139.347C127.196 138.945 127.312 138.553 127.514 138.205C127.716 137.856 127.997 137.56 128.335 137.34Z" fill="#E6E6E6"/>
<path id="Vector_69" d="M128.335 144.977L156.447 128.746C157.089 128.376 157.608 128.676 157.608 129.415V130.485C157.586 130.887 157.47 131.279 157.268 131.628C157.066 131.976 156.785 132.272 156.447 132.492L128.335 148.718C127.693 149.087 127.174 148.787 127.174 148.049V146.978C127.196 146.577 127.313 146.187 127.515 145.839C127.717 145.491 127.998 145.196 128.335 144.977Z" fill="#E6E6E6"/>
<path id="Vector_70" d="M106.833 97.3267C105.934 97.8619 104.96 98.092 103.756 98.975C102.686 99.751 102.226 99.7563 101.032 100.045C99.7425 100.361 89.5157 97.3375 87.7283 95.7641C84.9455 93.3345 80.0167 84.5687 78.1758 82.4655C76.6613 80.7316 74.5581 78.3823 72.6904 78.3716C69.6026 79.3081 70.3037 83.8997 72.8831 88.0311C75.0237 91.4508 79.4227 98.2793 84.0143 101.292C86.2405 102.753 97.1256 105.327 100.535 105.547C101.567 105.616 103.403 106.082 105.03 106.167C106.625 106.316 108.231 106.041 109.686 105.37C110.86 104.824 111.866 103.972 112.597 102.903C112.997 102.313 113.255 101.64 113.351 100.934C113.44 100.224 113.275 99.5057 112.886 98.9054C112.811 98.783 112.706 98.6817 112.581 98.6111C112.332 98.5301 112.061 98.5493 111.826 98.6646C110.462 99.1409 109.054 99.858 107.647 100.184C106.459 100.457 105.581 100.49 105.699 100.275C105.816 100.061 106.523 99.9437 107.331 99.2533C107.43 99.1711 107.523 99.0816 107.609 98.9857V96.8451C107.342 96.9908 107.083 97.1516 106.833 97.3267Z" fill="#B16668"/>
<path id="Vector_71" d="M72.497 77.3012C70.2119 78.4144 69.2861 80.1162 70.3029 83.9104C71.2126 87.314 74.7018 93.1151 77.4472 95.9567C77.4472 95.9567 82.1405 93.7305 84.645 90.8406C82.1672 87.0518 80.9792 84.8255 78.6513 81.6199C76.3233 78.4144 73.8884 76.9159 72.497 77.3012Z" fill="#455A64"/>
</g>
</g>
</svg>
